<svg width="1800" height="900" viewBox="0 0 1800 900" fill="none" xmlns="http://www.w3.org/2000/svg">
<g clip-path="url(#clip0)">
<rect width="1800" height="900" fill="#192D3E"/>
<ellipse cx="901.113" cy="232.52" rx="208.591" ry="207.52" fill="#8CC63E"/>
<ellipse cx="913.35" cy="212.598" rx="180.779" ry="179.85" fill="#AED477"/>
<path d="M725.013 96.9322C725.013 96.9322 880.913 6.84996 922.819 169.786C964.726 332.721 1108.68 271.932 1120.62 242.639" stroke="#192D3E" stroke-width="20"/>
<ellipse cx="905.006" cy="819.661" rx="444.994" ry="55.3385" fill="#039BE5"/>
<path d="M599.073 487.63C632.469 499.016 650.719 498.674 682.509 487.63L704.759 837.37H576.823L599.073 487.63Z" fill="#039BE5"/>
<path d="M1124.6 616.016C1153.64 622.321 1169.51 622.132 1197.15 616.016L1216.5 809.701H1105.25L1124.6 616.016Z" fill="#039BE5"/>
<path d="M850.591 450C894.151 462.611 917.955 462.232 959.421 450L988.442 837.37H821.57L850.591 450Z" fill="#039BE5"/>
<ellipse cx="636.341" cy="302.246" rx="186.341" ry="185.384" fill="#192D3E"/>
<ellipse cx="636.897" cy="302.8" rx="166.873" ry="166.016" fill="#8CC63E"/>
<ellipse cx="651.36" cy="275.13" rx="139.061" ry="138.346" fill="#AED477"/>
<path d="M493.604 202.768C493.604 202.768 628.534 104.963 652.872 261.427C677.209 417.892 800.37 349.446 812.139 320.087" stroke="#192D3E" stroke-width="15"/>
<ellipse cx="1161.99" cy="495.378" rx="111.248" ry="110.677" fill="#8CC63E"/>
<ellipse cx="1175.9" cy="490.397" rx="97.3424" ry="96.8424" fill="#AED477"/>
<path d="M1061.05 428.837C1061.05 428.837 1150.04 371.346 1170.3 469.075C1190.57 566.803 1272.3 527.259 1279.55 509.312" stroke="#192D3E" stroke-width="15"/>
<path d="M-215.962 -94.6089C161.615 -201.411 -136.52 113.586 175.759 282.448C268.728 332.72 91.2406 432 273.5 560C351.395 614.705 175.759 696 375.272 861.948C574.784 1027.9 77.2765 1055.68 -215.962 805.609L-656.241 355.5L-215.962 -94.6089Z" fill="#039BE5"/>
<path d="M2016.16 1021.58C1638.58 1128.38 1936.72 813.382 1624.44 644.52C1531.47 594.248 1708.96 494.969 1526.7 366.969C1448.8 312.263 1624.44 230.969 1424.93 65.0204C1225.41 -100.928 1722.92 -128.707 2016.16 121.36L2456.44 571.469L2016.16 1021.58Z" fill="#039BE5"/>
</g>
<defs>
<clipPath id="clip0">
<rect width="1800" height="900" fill="white"/>
</clipPath>
</defs>
</svg>
