<svg width="1200" height="600" viewBox="0 0 1200 600" fill="none" xmlns="http://www.w3.org/2000/svg">
<path d="M295.492 202.776L291.604 233.448H234.58L212.692 411H175.54L197.284 233.448H140.116L143.86 202.776H295.492ZM318.615 385.8C324.567 385.8 329.943 384.12 334.743 380.76C339.543 377.304 343.623 372.744 346.983 367.08C350.439 361.32 353.079 354.648 354.903 347.064C356.727 339.48 357.639 331.512 357.639 323.16C357.639 311.16 355.575 302.328 351.447 296.664C347.415 291 341.271 288.168 333.015 288.168C327.063 288.168 321.687 289.848 316.887 293.208C312.087 296.568 308.007 301.128 304.647 306.888C301.287 312.648 298.695 319.32 296.871 326.904C295.047 334.488 294.135 342.504 294.135 350.952C294.135 362.952 296.151 371.784 300.183 377.448C304.215 383.016 310.359 385.8 318.615 385.8ZM315.447 413.16C307.287 413.16 299.703 411.816 292.695 409.128C285.783 406.344 279.783 402.312 274.695 397.032C269.703 391.752 265.767 385.272 262.887 377.592C260.007 369.912 258.567 361.128 258.567 351.24C258.567 338.472 260.583 326.568 264.615 315.528C268.743 304.488 274.311 294.936 281.319 286.872C288.423 278.808 296.679 272.472 306.087 267.864C315.495 263.256 325.527 260.952 336.183 260.952C344.343 260.952 351.879 262.344 358.791 265.128C365.799 267.816 371.847 271.8 376.935 277.08C382.023 282.36 386.007 288.84 388.887 296.52C391.767 304.2 393.207 312.984 393.207 322.872C393.207 335.544 391.143 347.4 387.015 358.44C382.887 369.384 377.271 378.936 370.167 387.096C363.159 395.16 354.951 401.544 345.543 406.248C336.135 410.856 326.103 413.16 315.447 413.16ZM400.772 459.24L424.676 263.112H442.676C445.94 263.112 448.724 263.832 451.028 265.272C453.332 266.616 454.484 268.872 454.484 272.04C454.484 272.04 454.484 272.184 454.484 272.472C454.484 272.76 454.436 273.672 454.34 275.208C454.244 276.648 454.148 279 454.052 282.264C453.956 285.432 453.764 289.944 453.476 295.8C460.58 285.144 468.596 276.696 477.524 270.456C486.548 264.12 496.052 260.952 506.036 260.952C512.18 260.952 517.748 262.104 522.74 264.408C527.828 266.616 532.148 269.976 535.7 274.488C539.252 279 541.988 284.712 543.907 291.624C545.828 298.536 546.788 306.648 546.788 315.96C546.788 324.312 545.924 332.52 544.196 340.584C542.468 348.648 540.02 356.28 536.852 363.48C533.684 370.68 529.892 377.304 525.476 383.352C521.156 389.4 516.308 394.632 510.932 399.048C505.556 403.464 499.796 406.92 493.652 409.416C487.604 411.912 481.316 413.16 474.788 413.16C468.164 413.16 462.116 412.008 456.644 409.704C451.268 407.304 446.612 403.992 442.676 399.768L435.332 459.24H400.772ZM492.212 288.888C488.276 288.888 484.292 290.232 480.26 292.92C476.228 295.512 472.34 299.16 468.596 303.864C464.852 308.472 461.348 313.944 458.084 320.28C454.916 326.616 452.18 333.432 449.876 340.728L445.556 376.584C448.82 380.04 452.516 382.488 456.644 383.928C460.868 385.368 465.044 386.088 469.172 386.088C475.508 386.088 481.268 384.12 486.452 380.184C491.636 376.248 496.052 371.112 499.7 364.776C503.444 358.44 506.324 351.336 508.34 343.464C510.356 335.496 511.364 327.528 511.364 319.56C511.364 309.192 509.684 301.512 506.324 296.52C502.964 291.432 498.26 288.888 492.212 288.888ZM686.546 240.216C685.202 242.136 683.858 243.576 682.514 244.536C681.17 245.4 679.538 245.832 677.618 245.832C675.698 245.832 673.73 245.064 671.714 243.528C669.698 241.992 667.298 240.312 664.514 238.488C661.73 236.568 658.418 234.84 654.578 233.304C650.834 231.768 646.274 231 640.898 231C635.618 231 630.962 231.768 626.93 233.304C622.898 234.84 619.49 236.952 616.706 239.64C614.018 242.328 611.954 245.496 610.514 249.144C609.17 252.792 608.498 256.728 608.498 260.952C608.498 265.368 609.602 269.064 611.81 272.04C614.114 274.92 617.09 277.464 620.738 279.672C624.386 281.88 628.562 283.848 633.266 285.576C637.97 287.304 642.722 289.128 647.522 291.048C652.418 292.968 657.218 295.176 661.922 297.672C666.626 300.168 670.802 303.24 674.45 306.888C678.098 310.536 681.026 314.952 683.234 320.136C685.538 325.224 686.69 331.416 686.69 338.712C686.69 348.888 684.914 358.488 681.362 367.512C677.906 376.536 672.866 384.456 666.242 391.272C659.714 397.992 651.746 403.368 642.338 407.4C633.026 411.336 622.514 413.304 610.802 413.304C604.754 413.304 598.802 412.632 592.946 411.288C587.09 410.04 581.57 408.216 576.386 405.816C571.202 403.416 566.402 400.536 561.986 397.176C557.57 393.816 553.73 390.072 550.466 385.944L563.714 368.088C564.77 366.744 566.114 365.64 567.746 364.776C569.378 363.912 571.01 363.48 572.642 363.48C574.178 363.48 575.666 363.96 577.106 364.92C578.642 365.88 580.274 367.08 582.002 368.52C583.826 369.864 585.746 371.4 587.762 373.128C589.874 374.76 592.274 376.296 594.962 377.736C597.65 379.08 600.674 380.232 604.034 381.192C607.394 382.152 611.282 382.632 615.698 382.632C626.546 382.632 635.042 379.56 641.186 373.416C647.33 367.272 650.402 358.776 650.402 347.928C650.402 343.128 649.298 339.192 647.09 336.12C644.882 333.048 641.954 330.456 638.306 328.344C634.658 326.232 630.53 324.408 625.922 322.872C621.314 321.24 616.562 319.56 611.666 317.832C606.866 316.008 602.162 313.944 597.554 311.64C592.946 309.24 588.818 306.216 585.17 302.568C581.522 298.824 578.594 294.264 576.386 288.888C574.178 283.512 573.074 276.888 573.074 269.016C573.074 260.088 574.706 251.496 577.97 243.24C581.33 234.984 586.082 227.736 592.226 221.496C598.37 215.16 605.81 210.12 614.546 206.376C623.378 202.536 633.314 200.616 644.354 200.616C650.018 200.616 655.442 201.192 660.626 202.344C665.906 203.496 670.802 205.128 675.314 207.24C679.826 209.352 683.954 211.896 687.698 214.872C691.538 217.752 694.85 220.968 697.634 224.52L686.546 240.216ZM695.803 459.24L719.707 263.112H737.707C740.971 263.112 743.755 263.832 746.059 265.272C748.363 266.616 749.515 268.872 749.515 272.04C749.515 272.04 749.515 272.184 749.515 272.472C749.515 272.76 749.467 273.672 749.371 275.208C749.275 276.648 749.179 279 749.083 282.264C748.987 285.432 748.795 289.944 748.507 295.8C755.611 285.144 763.627 276.696 772.555 270.456C781.579 264.12 791.083 260.952 801.067 260.952C807.211 260.952 812.779 262.104 817.771 264.408C822.859 266.616 827.179 269.976 830.731 274.488C834.283 279 837.019 284.712 838.939 291.624C840.859 298.536 841.819 306.648 841.819 315.96C841.819 324.312 840.955 332.52 839.227 340.584C837.499 348.648 835.051 356.28 831.883 363.48C828.715 370.68 824.923 377.304 820.507 383.352C816.187 389.4 811.339 394.632 805.963 399.048C800.587 403.464 794.827 406.92 788.683 409.416C782.635 411.912 776.347 413.16 769.819 413.16C763.195 413.16 757.147 412.008 751.675 409.704C746.299 407.304 741.643 403.992 737.707 399.768L730.363 459.24H695.803ZM787.243 288.888C783.307 288.888 779.323 290.232 775.291 292.92C771.259 295.512 767.371 299.16 763.627 303.864C759.883 308.472 756.379 313.944 753.115 320.28C749.947 326.616 747.211 333.432 744.907 340.728L740.587 376.584C743.851 380.04 747.547 382.488 751.675 383.928C755.899 385.368 760.075 386.088 764.203 386.088C770.539 386.088 776.299 384.12 781.483 380.184C786.667 376.248 791.083 371.112 794.731 364.776C798.475 358.44 801.355 351.336 803.371 343.464C805.387 335.496 806.395 327.528 806.395 319.56C806.395 309.192 804.715 301.512 801.355 296.52C797.995 291.432 793.291 288.888 787.243 288.888ZM910.442 263.256L892.73 411H857.594L875.306 263.256H910.442ZM919.37 220.2C919.37 223.272 918.698 226.152 917.354 228.84C916.106 231.528 914.426 233.88 912.314 235.896C910.298 237.912 907.946 239.544 905.258 240.792C902.57 241.944 899.786 242.52 896.906 242.52C894.122 242.52 891.386 241.944 888.698 240.792C886.106 239.544 883.802 237.912 881.786 235.896C879.77 233.88 878.138 231.528 876.89 228.84C875.738 226.152 875.162 223.272 875.162 220.2C875.162 217.128 875.786 214.2 877.034 211.416C878.282 208.632 879.914 206.232 881.93 204.216C883.946 202.104 886.25 200.472 888.842 199.32C891.53 198.072 894.266 197.448 897.05 197.448C899.93 197.448 902.714 198.072 905.402 199.32C908.09 200.472 910.442 202.056 912.458 204.072C914.57 206.088 916.25 208.488 917.498 211.272C918.746 214.056 919.37 217.032 919.37 220.2ZM928.676 411L946.388 263.112H964.532C968.276 263.112 971.156 264.024 973.172 265.848C975.284 267.672 976.34 270.6 976.34 274.632L975.332 293.784C982.82 282.744 991.124 274.536 1000.24 269.16C1009.36 263.688 1018.77 260.952 1028.47 260.952C1033.94 260.952 1038.88 261.96 1043.3 263.976C1047.81 265.896 1051.65 268.776 1054.82 272.616C1057.99 276.36 1060.44 281.016 1062.16 286.584C1063.89 292.056 1064.76 298.392 1064.76 305.592C1064.76 307.416 1064.66 309.288 1064.47 311.208C1064.37 313.032 1064.23 314.952 1064.04 316.968L1052.95 411H1017.38C1019.3 394.776 1020.93 381.048 1022.28 369.816C1023.62 358.488 1024.72 349.08 1025.59 341.592C1026.45 334.104 1027.12 328.248 1027.6 324.024C1028.08 319.704 1028.42 316.44 1028.61 314.232C1028.9 312.024 1029.04 310.584 1029.04 309.912C1029.14 309.144 1029.19 308.52 1029.19 308.04C1029.19 301.704 1028.04 297.144 1025.73 294.36C1023.43 291.48 1019.83 290.04 1014.93 290.04C1011 290.04 1006.92 291.192 1002.69 293.496C998.468 295.8 994.436 299.064 990.596 303.288C986.756 307.512 983.252 312.6 980.084 318.552C976.916 324.504 974.324 331.128 972.308 338.424L964.244 411H928.676Z" fill="#192D3E"/>
<circle cx="898.237" cy="202" r="50" fill="#8CC63E"/>
<circle cx="901.987" cy="199" r="45" fill="#AED477"/>
<path d="M851.997 174.16C851.997 174.16 888.217 156.946 900.187 191.909C912.157 226.872 945.868 215.714 948.377 209.658" stroke="white" stroke-width="10"/>
</svg>
